PathFileType	4	(X/Y/Z)	F:\MotionCapture\20160217\3\Generated_files\EMG_test04-Dynamic.trc
DataRate	CameraRate	NumFrames	NumMarkers	Units	OrigDataRate	OrigDataStartFrame	OrigNumFrames
120.00	120.00	       5	39	mm	120.00	268	       713
Frame#	Time	Top.Head			Front.Head			Rear.Head			R.Shoulder			R.Offset			R.Elbow			R.Wrist			L.Shoulder			L.Elbow			L.Wrist			R.ASIS			L.ASIS			V.Sacral			R.Thigh			R.Knee			R.Shank			R.Ankle			R.Heel			R.Toe			L.Thigh			L.Knee			L.Shank			L.Ankle			L.Heel			L.Toe			R1			R2			R3			R4			R5			R6			R7			L1			L2			L3			L4			L5			L6			L7			V_Mid_ASIS			V_Pelvis_Origin			V_R.Hip_JC			V_L.Hip_JC			V_R.Knee_JC			V_L.Knee_JC			V_R.Ankle_JC			V_L.Ankle_JC			V_Mid_Hip			V_Mid_Shoulder			V_R.Hand			V_L.Hand			V_R.Toe_Offset_Static			V_L.Toe_Offset_Static			V_R.Toe_Offset			V_L.Toe_Offset			
		X1	Y1	Z1	X2	Y2	Z2	X3	Y3	Z3	X4	Y4	Z4	X5	Y5	Z5	X6	Y6	Z6	X7	Y7	Z7	X8	Y8	Z8	X9	Y9	Z9	X10	Y10	Z10	X11	Y11	Z11	X12	Y12	Z12	X13	Y13	Z13	X14	Y14	Z14	X15	Y15	Z15	X16	Y16	Z16	X17	Y17	Z17	X18	Y18	Z18	X19	Y19	Z19	X20	Y20	Z20	X21	Y21	Z21	X22	Y22	Z22	X23	Y23	Z23	X24	Y24	Z24	X25	Y25	Z25	X26	Y26	Z26	X27	Y27	Z27	X28	Y28	Z28	X29	Y29	Z29	X30	Y30	Z30	X31	Y31	Z31	X32	Y32	Z32	X33	Y33	Z33	X34	Y34	Z34	X35	Y35	Z35	X36	Y36	Z36	X37	Y37	Z37	X38	Y38	Z38	X39	Y39	Z39	

268	2.225	1408.42700	169.67220	1704.74890	1299.83997	165.46457	1618.42102	1518.65613	168.64435	1639.49524	1469.46155	368.29041	1410.35291	1614.59973	110.25618	1264.45105	1429.56433	513.73584	1107.28235	1189.62744	462.33612	1015.22333	1462.19324	-36.18425	1400.81079	1587.32153	-142.94431	1113.88977	1591.53223	-180.49423	857.11371	1437.31934	322.63254	924.60156	1406.80640	35.57008	924.77130	1644.57349	150.00023	931.57410	1468.60461	260.81958	542.93152	1564.70618	294.14371	449.76294	1629.12048	211.36053	226.10327	1720.31775	279.94308	77.97586	1791.96399	218.91350	54.42377	1579.50549	266.84760	42.77308	1268.91931	63.24115	660.80530	1287.81738	3.19346	484.84488	1234.43738	74.97884	355.50220	1236.12610	13.53578	80.04684	1286.77283	75.67701	42.94390	1102.16980	9.50887	100.89346	1532.46057	249.56038	40.34540	1574.51648	227.94223	46.50635	1671.35400	189.45592	52.20102	1745.24939	190.28085	46.24763	1761.16479	262.29538	54.35381	1687.29639	290.69754	42.64638	1621.10339	310.16159	39.50352	1059.28174	27.42844	116.06848	1087.67126	44.52772	107.59087	1171.07263	94.34995	88.20923	1246.49902	102.65655	57.32565	1264.76196	32.63152	49.00176	1194.40552	-6.45873	63.41493	1135.85876	-15.77747	84.61862	
269	2.233	1396.13049	169.03981	1701.85327	1287.58313	164.62939	1615.20410	1506.33459	167.92841	1636.31189	1457.00696	367.32248	1407.26685	1602.43689	109.13762	1261.45642	1412.98071	515.36066	1105.38171	1170.34863	461.33438	1021.88147	1449.22375	-36.98779	1398.00476	1580.62280	-143.27756	1113.81946	1591.75244	-182.45842	857.35834	1425.41748	322.25922	921.59674	1393.59070	35.67548	921.41321	1632.50769	148.85410	929.13068	1460.86475	261.63031	540.27545	1558.44910	294.31769	448.17538	1625.96265	211.20490	225.67702	1719.75024	278.93906	78.75231	1791.41467	217.90044	56.01944	1580.46448	265.83664	42.46474	1257.23413	63.80108	656.94061	1273.61621	3.87391	483.26678	1216.14075	75.21330	355.89743	1206.71802	11.35851	81.51315	1256.71484	73.21897	41.88183	1073.26794	10.02252	106.52837	1532.90442	249.33852	40.53057	1574.35229	227.97485	46.37804	1670.96008	189.21744	52.51333	1744.44946	189.52290	47.29967	1761.07031	261.92249	55.94991	1687.12061	290.16296	42.58841	1621.23071	310.06525	39.30418	1031.32056	29.42635	122.64978	1060.69214	43.31247	114.07702	1143.02441	93.05486	90.60401	1217.06445	100.83542	57.32023	1233.97681	30.59575	48.71403	1162.44177	-6.02367	64.91773	1106.00989	-16.44164	87.98302	
270	2.242	1383.98206	167.89697	1698.98303	1275.15454	164.05428	1611.91357	1494.00256	167.07281	1633.21045	1444.40356	366.18469	1403.96863	1590.07837	108.14599	1258.71057	1396.30225	514.28790	1105.40674	1152.68262	460.65567	1027.87646	1437.29797	-38.25707	1395.52917	1573.32617	-143.49841	1113.71484	1590.57019	-184.01706	858.12573	1414.36023	322.74265	919.01849	1380.91821	35.12075	918.11108	1619.98706	147.24738	926.30457	1452.00085	262.23819	537.96814	1552.19482	294.30725	446.58487	1622.10657	211.48438	224.60944	1719.34058	278.04138	79.74567	1790.98657	216.71527	57.87148	1580.15405	266.76031	42.70625	1245.79065	64.38820	653.05450	1259.46582	4.63556	482.05627	1198.63501	75.23666	356.24066	1177.48755	11.16185	81.94928	1228.07520	71.48204	41.31898	1045.84583	11.01513	111.73975	1532.81848	249.72545	40.40060	1574.08557	228.05392	46.19715	1670.62305	189.05386	52.86277	1743.95837	188.78540	48.86010	1760.72607	260.99597	57.18749	1687.23474	290.00702	43.22303	1621.78931	309.80243	39.10704	1004.59082	30.67319	128.45174	1032.86694	45.93702	118.70187	1116.54456	92.46230	93.19471	1189.38403	99.33005	57.91806	1204.92529	28.74991	49.27087	1133.95557	-7.91556	67.68810	1076.99634	-17.02559	91.04955																																																	2275.95630	-178.78984	480.65540	
271	2.250	1371.59802	167.05144	1695.93408	1262.54517	162.61507	1609.45105	1481.58289	166.06741	1630.17944	1431.82104	364.39810	1401.44385	1577.87695	107.29385	1255.81555	1380.56335	514.28973	1103.60315	1134.80164	459.59628	1033.72754	1424.25928	-39.06757	1392.56140	1566.24146	-144.31493	1113.46912	1589.01892	-185.29065	858.45850	1402.33496	322.30969	916.27008	1367.71106	34.83423	914.95831	1607.64868	145.61334	923.45703	1443.88586	262.93613	535.20874	1546.25977	294.10703	445.54919	1618.79871	211.06528	224.07231	1716.53442	276.14206	79.44217	1790.53076	215.77722	60.19385	1580.21301	266.73172	42.59259	1234.77258	65.50507	649.95557	1245.54321	4.83211	480.88269	1181.14697	74.96271	356.37003	1151.58765	9.64917	83.31205	1201.79150	69.50236	41.36545	1020.40167	11.51329	115.77743	1532.66211	250.16672	40.19449	1573.90564	228.12245	46.12294	1669.31616	188.67368	53.36067	1743.54211	186.71759	51.99271	1760.34753	260.11722	59.05768	1687.33386	289.29315	43.06217	1622.08130	309.39023	39.10539	979.33795	31.94586	133.73444	1008.07117	45.20907	123.67943	1090.82495	91.90309	95.64877	1162.67834	98.33147	58.62946	1177.97571	27.10334	49.77046	1107.18457	-8.84320	70.45515	1050.52649	-17.48649	94.06716																																																	2271.46924	-177.62546	477.32910	1081.16687	442.84378	1014.90607	
272	2.258	1359.22729	166.19136	1692.94165	1249.90320	161.65808	1607.07898	1469.11670	164.99104	1627.29224	1419.43164	363.58569	1398.60791	1565.42395	105.75093	1252.88306	1364.41602	514.28741	1102.83777	1117.24109	458.19379	1039.10962	1412.06421	-40.39786	1390.22253	1558.14392	-144.64726	1113.20557	1587.13623	-186.99272	859.17737	1391.38257	322.17432	913.48450	1354.03821	34.77097	912.37421	1594.88513	144.01208	920.60815	1435.48352	264.07471	533.05188	1539.82141	294.17139	444.37506	1616.26636	210.88696	223.97604	1717.64343	277.66797	81.82588	1789.79346	214.64928	62.85962	1580.20044	266.72574	42.53322	1222.10974	65.54529	647.11981	1232.05847	4.82887	479.52243	1164.69763	75.16968	356.73111	1127.24023	8.42591	84.36964	1176.37500	67.49516	40.71640	995.00214	10.05540	119.30061	1532.31812	250.53084	39.97040	1573.88403	227.94850	46.01461	1668.76196	187.98500	54.49424	1743.20398	185.91597	54.39863	1759.86584	259.49783	61.53426	1688.14429	289.37320	43.73618	1622.34705	309.04312	39.11245	956.68774	31.62539	138.76434	985.03937	45.77280	127.34840	1066.09058	91.73080	97.14091	1138.85339	96.50804	59.28104	1153.35156	25.53567	50.16871	1081.72754	-9.00606	71.53535	1025.92981	-17.45484	96.93561	
